<svg width="66" height="68" viewBox="0 0 66 68" fill="none" xmlns="http://www.w3.org/2000/svg">
<path d="M63.9685 13.1877L33.9685 0.687703C33.3469 0.437432 32.6526 0.437432 32.031 0.687703L2.03103 13.1877C1.52618 13.4071 1.10663 13.7852 0.835947 14.2645C0.565268 14.7438 0.458222 15.2983 0.531032 15.844L5.53103 53.344C5.58576 53.7462 5.73641 54.1293 5.97028 54.4611C6.20415 54.7928 6.51437 55.0635 6.87478 55.2502L31.8748 67.7502C32.227 67.9149 32.611 68.0002 32.9998 68.0002C33.3886 68.0002 33.7726 67.9149 34.1248 67.7502L59.1248 55.2502C59.4852 55.0635 59.7954 54.7928 60.0293 54.4611C60.2632 54.1293 60.4138 53.7462 60.4685 53.344L65.4685 15.844C65.5413 15.2983 65.4343 14.7438 65.1636 14.2645C64.8929 13.7852 64.4734 13.4071 63.9685 13.1877ZM45.3748 45.2502C45.02 45.407 44.6376 45.492 44.2498 45.5002C43.7846 45.4999 43.3285 45.3714 42.9316 45.1288C42.5347 44.8863 42.2123 44.539 41.9998 44.1252L39.3748 38.844H26.6248L23.9998 44.1252C23.7014 44.7219 23.1782 45.1757 22.5453 45.3867C21.9123 45.5977 21.2215 45.5486 20.6248 45.2502C20.028 44.9518 19.5743 44.4286 19.3633 43.7957C19.1523 43.1628 19.2014 42.4719 19.4998 41.8752L30.7498 19.3752C30.9627 18.962 31.2853 18.6155 31.6822 18.3735C32.0791 18.1316 32.535 18.0036 32.9998 18.0036C33.4646 18.0036 33.9205 18.1316 34.3173 18.3735C34.7142 18.6155 35.0368 18.962 35.2498 19.3752L46.4998 41.8752C46.7857 42.474 46.8282 43.1603 46.6184 43.7897C46.4086 44.4192 45.9628 44.9427 45.3748 45.2502ZM32.9998 26.094L36.8748 33.844H29.1248L32.9998 26.094Z" fill="#627DA0"/>
</svg>
