<svg width="20" height="18" viewBox="0 0 20 18" fill="none" xmlns="http://www.w3.org/2000/svg">
<path d="M17.57 7.07298C18.7848 7.07298 18.8956 9 17.5581 9H17.1307V10.6077H16.0781V7.07298H17.57V7.07298ZM19.5287 12.5056C17.8628 15.8407 14.7169 18 10.6648 18C5.24349 18 0.851074 13.9718 0.851074 9C0.851074 4.02823 5.24349 0 10.6648 0C14.519 0 17.5027 1.94879 19.2992 5.02258L11.939 8.97097L19.5287 12.5056ZM18.0052 12.9593L15.6191 11.8452C14.5467 13.4528 12.8333 14.4363 10.7756 14.4363C7.51093 14.4363 4.87152 12.0157 4.87152 9.03266C4.87152 6.03871 7.51093 3.61814 10.7756 3.61814C12.6908 3.61814 14.2934 4.47097 15.4014 5.91895L17.7559 4.66331C16.1454 2.39153 13.6128 1.03427 10.6648 1.03427C5.86872 1.03427 1.97886 4.60161 1.97886 9C1.97886 13.3984 5.86872 16.9657 10.6648 16.9657C13.7751 16.9657 16.462 15.4379 18.0052 12.9593Z" fill="#6C7882"/>
</svg>
