<svg width="18" height="21" viewBox="0 0 18 21" fill="none" xmlns="http://www.w3.org/2000/svg">
<path d="M13 15.3437C13.4167 15.3437 13.771 15.1977 14.063 14.9057C14.355 14.6137 14.5007 14.2597 14.5 13.8437C14.5 13.427 14.354 13.0727 14.062 12.7807C13.77 12.4887 13.416 12.343 13 12.3437C12.5833 12.3437 12.229 12.4897 11.937 12.7817C11.645 13.0737 11.4993 13.4277 11.5 13.8437C11.5 14.2603 11.646 14.6147 11.938 14.9067C12.23 15.1987 12.584 15.3443 13 15.3437ZM13 18.3437C13.5167 18.3437 13.9917 18.2227 14.425 17.9807C14.8583 17.7387 15.2083 17.418 15.475 17.0187C15.1083 16.802 14.7167 16.6353 14.3 16.5187C13.8833 16.402 13.45 16.3437 13 16.3437C12.55 16.3437 12.1167 16.402 11.7 16.5187C11.2833 16.6353 10.8917 16.802 10.525 17.0187C10.7917 17.4187 11.1417 17.7397 11.575 17.9817C12.0083 18.2237 12.4833 18.3443 13 18.3437ZM13 20.3437C11.6167 20.3437 10.4373 19.856 9.462 18.8807C8.48667 17.9053 7.99933 16.7263 8 15.3437C8 13.9603 8.48767 12.781 9.463 11.8057C10.4383 10.8303 11.6173 10.343 13 10.3437C14.3833 10.3437 15.5627 10.8313 16.538 11.8067C17.5133 12.782 18.0007 13.961 18 15.3437C18 16.727 17.5123 17.9063 16.537 18.8817C15.5617 19.857 14.3827 20.3443 13 20.3437ZM8 20.2687H7.762C7.68733 20.2687 7.60833 20.252 7.525 20.2187C5.34167 19.552 3.54167 18.202 2.125 16.1687C0.708333 14.1353 0 11.8937 0 9.44365V4.71865C0 4.30199 0.121 3.92699 0.363 3.59365C0.605 3.26032 0.917333 3.01865 1.3 2.86865L7.3 0.618652C7.53333 0.535319 7.76667 0.493652 8 0.493652C8.23333 0.493652 8.46667 0.535319 8.7 0.618652L14.7 2.86865C15.0833 3.01865 15.396 3.26032 15.638 3.59365C15.88 3.92699 16.0007 4.30199 16 4.71865V9.01865C15.5167 8.80199 15.029 8.63532 14.537 8.51865C14.045 8.40199 13.5327 8.34365 13 8.34365C11.0667 8.34365 9.41667 9.02699 8.05 10.3937C6.68333 11.7603 6 13.4103 6 15.3437C6 16.2937 6.16667 17.1813 6.5 18.0067C6.83333 18.832 7.34167 19.586 8.025 20.2687H8Z" fill="#373C36"/>
</svg>
