<svg width="18" height="18" viewBox="0 0 18 18" fill="none" xmlns="http://www.w3.org/2000/svg">
<path d="M12 8C11.45 8 10.979 7.804 10.587 7.412C10.195 7.02 9.99934 6.54934 10 6V2C10 1.45 10.196 0.979002 10.588 0.587002C10.98 0.195002 11.4507 -0.000664969 12 1.69779e-06H16C16.55 1.69779e-06 17.021 0.196002 17.413 0.588002C17.805 0.980002 18.0007 1.45067 18 2V6C18 6.55 17.804 7.021 17.412 7.413C17.02 7.805 16.5493 8.00067 16 8H12ZM8 6C8 6.55 7.804 7.021 7.412 7.413C7.02 7.805 6.54934 8.00067 6 8H2C1.45 8 0.979002 7.804 0.587002 7.412C0.195002 7.02 -0.000664969 6.54934 1.69779e-06 6V2C1.69779e-06 1.45 0.196002 0.979002 0.588002 0.587002C0.980002 0.195002 1.45067 -0.000664969 2 1.69779e-06H6C6.55 1.69779e-06 7.021 0.196002 7.413 0.588002C7.805 0.980002 8.00067 1.45067 8 2V6ZM10 12C10 11.45 10.196 10.979 10.588 10.587C10.98 10.195 11.4507 9.99934 12 10H16C16.55 10 17.021 10.196 17.413 10.588C17.805 10.98 18.0007 11.4507 18 12V16C18 16.55 17.804 17.021 17.412 17.413C17.02 17.805 16.5493 18.0007 16 18H12C11.45 18 10.979 17.804 10.587 17.412C10.195 17.02 9.99934 16.5493 10 16V12ZM6 10C6.55 10 7.021 10.196 7.413 10.588C7.805 10.98 8.00067 11.4507 8 12V16C8 16.55 7.804 17.021 7.412 17.413C7.02 17.805 6.54934 18.0007 6 18H2C1.45 18 0.979002 17.804 0.587002 17.412C0.195002 17.02 -0.000664969 16.5493 1.69779e-06 16V12C1.69779e-06 11.45 0.196002 10.979 0.588002 10.587C0.980002 10.195 1.45067 9.99934 2 10H6Z" fill="#627DA0"/>
</svg>
