<svg width="22" height="24" viewBox="0 0 22 24" fill="none" xmlns="http://www.w3.org/2000/svg">
    <path d="M21.5958 18.7998L16.5758 13.8205C16.3385 13.5853 16.0267 13.4598 15.7061 13.4706C15.3856 13.4814 15.0815 13.6276 14.858 13.8785L11.9028 17.1939C11.1914 17.0457 9.76136 16.5594 8.2893 14.9576C6.81725 13.3504 6.37143 11.7863 6.23929 11.0157L9.27603 7.79046C9.50624 7.54679 9.6405 7.21496 9.65041 6.86521C9.66033 6.51546 9.5451 6.17522 9.32913 5.9165L4.766 0.441468C4.54994 0.181938 4.24965 0.0245142 3.9289 0.00262946C3.60815 -0.0192553 3.29222 0.0961234 3.04819 0.324261L0.368362 2.83141C0.154854 3.06517 0.0274177 3.37628 0.0102278 3.70574C-0.00829641 4.04254 -0.361491 12.0207 5.30938 18.2097C10.2566 23.6053 16.4535 24 18.1602 24C18.4097 24 18.5628 23.9919 18.6036 23.9892C18.9055 23.9708 19.1906 23.8311 19.4038 23.5972L21.7008 20.6724C21.9108 20.4071 22.0173 20.0627 21.9977 19.7128C21.9781 19.3629 21.8339 19.0353 21.5958 18.7998Z" fill="#87949F"/>
    </svg>
