<svg width="10" height="10" viewBox="0 0 10 10" fill="none" xmlns="http://www.w3.org/2000/svg">
<path d="M9.70627 3.186L5.20627 0.185998C5.14462 0.146797 5.07307 0.125977 5.00002 0.125977C4.92696 0.125977 4.85541 0.146797 4.79377 0.185998L0.293766 3.186C0.241482 3.21992 0.198605 3.26648 0.169107 3.32138C0.139609 3.37628 0.124443 3.43774 0.125016 3.50006V8.37506C0.125016 8.57397 0.204033 8.76474 0.344685 8.90539C0.485338 9.04604 0.676103 9.12506 0.875016 9.12506H9.12502C9.32393 9.12506 9.51469 9.04604 9.65535 8.90539C9.796 8.76474 9.87502 8.57397 9.87502 8.37506V3.50006C9.87559 3.43774 9.86042 3.37628 9.83092 3.32138C9.80143 3.26648 9.75855 3.21992 9.70627 3.186ZM0.875016 8.37506V4.22662L3.96408 6.42975C4.02683 6.47516 4.10224 6.49975 4.1797 6.50006H5.82033C5.89779 6.49975 5.9732 6.47516 6.03595 6.42975L9.12502 4.22662V8.37506H0.875016Z" fill="#B9930B"/>
</svg>
