<svg width="22" height="22" viewBox="0 0 22 22" fill="none" xmlns="http://www.w3.org/2000/svg">
<path d="M20.7102 8.05392C21.9602 6.80392 21.3902 5.34392 20.7102 4.63392L17.7102 1.63392C16.4502 0.383923 15.0002 0.953923 14.2902 1.63392L12.5902 3.34392H10.0002C8.10017 3.34392 7.00017 4.34392 6.44017 5.49392L2.00017 9.93392V13.9339L1.29017 14.6339C0.0401732 15.8939 0.610173 17.3439 1.29017 18.0539L4.29017 21.0539C4.83017 21.5939 5.41017 21.7939 5.96017 21.7939C6.67017 21.7939 7.32017 21.4439 7.71017 21.0539L10.4102 18.3439H14.0002C15.7002 18.3439 16.5602 17.2839 16.8702 16.2439C18.0002 15.9439 18.6202 15.0839 18.8702 14.2439C20.4202 13.8439 21.0002 12.3739 21.0002 11.3439V8.34392H20.4102L20.7102 8.05392ZM19.0002 11.3439C19.0002 11.7939 18.8102 12.3439 18.0002 12.3439H17.0002V13.3439C17.0002 13.7939 16.8102 14.3439 16.0002 14.3439H15.0002V15.3439C15.0002 15.7939 14.8102 16.3439 14.0002 16.3439H9.59017L6.31017 19.6239C6.00017 19.9139 5.82017 19.7439 5.71017 19.6339L2.72017 16.6539C2.43017 16.3439 2.60017 16.1639 2.71017 16.0539L4.00017 14.7539V10.7539L6.00017 8.75392V10.3439C6.00017 11.5539 6.80017 13.3439 9.00017 13.3439C11.2002 13.3439 12.0002 11.5539 12.0002 10.3439H19.0002V11.3439ZM19.2902 6.63392L17.5902 8.34392H10.0002V10.3439C10.0002 10.7939 9.81017 11.3439 9.00017 11.3439C8.19017 11.3439 8.00017 10.7939 8.00017 10.3439V7.34392C8.00017 6.88392 8.17017 5.34392 10.0002 5.34392H13.4102L15.6902 3.06392C16.0002 2.77392 16.1802 2.94392 16.2902 3.05392L19.2802 6.03392C19.5702 6.34392 19.4002 6.52392 19.2902 6.63392Z" fill="#627DA0"/>
</svg>
