<svg width="18" height="21" viewBox="0 0 18 21" fill="none" xmlns="http://www.w3.org/2000/svg">
<path d="M8.811 0.363281C8.93555 0.339844 9.06412 0.339844 9.18867 0.363281L17.2244 1.92578C17.6744 2.01172 17.9998 2.39844 17.9998 2.84375C17.9998 3.28906 17.6744 3.67578 17.2244 3.76172L14.1427 4.36328V6.59375C14.1427 9.35547 11.8405 11.5938 8.99984 11.5938C6.15921 11.5938 3.85698 9.35547 3.85698 6.59375V4.36328L1.92841 3.98828V6.53125L2.55921 9.59375C2.59537 9.77734 2.54716 9.96875 2.42662 10.1133C2.30609 10.2578 2.12126 10.3438 1.92841 10.3438H0.642693C0.449835 10.3438 0.269032 10.2617 0.144478 10.1133C0.0199247 9.96484 -0.0282896 9.77734 0.011889 9.59375L0.642693 6.53125V3.72656C0.260996 3.59766 -0.000164561 3.24609 -0.000164561 2.84375C-0.000164561 2.39844 0.325282 2.01172 0.775282 1.92578L8.811 0.363281ZM4.49582 13.1445C4.91769 13.0117 5.37171 13.1602 5.67707 13.4766L8.52975 16.4258C8.78287 16.6875 9.21278 16.6875 9.46591 16.4258L12.3186 13.4766C12.6239 13.1602 13.078 13.0117 13.4998 13.1445C16.1114 13.9609 17.9998 16.3359 17.9998 19.1445C17.9998 19.8086 17.4454 20.3438 16.7664 20.3438H1.23332C0.5543 20.3438 -0.000164561 19.8047 -0.000164561 19.1445C-0.000164561 16.3359 1.88823 13.9609 4.49582 13.1445Z" fill="#627DA0"/>
</svg>
