<svg width="17" height="17" viewBox="0 0 17 17" fill="none" xmlns="http://www.w3.org/2000/svg">
    <path fill-rule="evenodd" clip-rule="evenodd" d="M1.10544 8.01258C1.10719 7.87998 1.16154 7.75351 1.25654 7.66099C1.35153 7.56846 1.4794 7.51747 1.61199 7.51922L13.404 7.67475L10.2987 4.48752C10.2061 4.39241 10.155 4.26438 10.1568 4.13162C10.1585 3.99885 10.213 3.87222 10.3081 3.77958C10.4032 3.68694 10.5312 3.63588 10.664 3.63763C10.7967 3.63938 10.9234 3.6938 11.016 3.78892L14.9629 7.84133C15.0089 7.88839 15.0451 7.94404 15.0695 8.00512C15.0939 8.06619 15.106 8.13147 15.1051 8.19724C15.1042 8.263 15.0904 8.32794 15.0644 8.38835C15.0384 8.44876 15.0007 8.50344 14.9536 8.54927L10.9012 12.4962C10.806 12.5888 10.678 12.6399 10.5453 12.6381C10.4125 12.6364 10.2859 12.5819 10.1932 12.4868C10.1006 12.3917 10.0495 12.2637 10.0513 12.1309C10.053 11.9982 10.1074 11.8715 10.2026 11.7789L13.3908 8.67467L1.5988 8.51913C1.46621 8.51738 1.33973 8.46303 1.24721 8.36803C1.15469 8.27303 1.10369 8.14517 1.10544 8.01258Z" fill="#2FAAD0"/>
    </svg>
