<svg width="21" height="21" viewBox="0 0 21 21" fill="none" xmlns="http://www.w3.org/2000/svg">
<path d="M19 15.3438C19.5304 15.3438 20.0391 15.133 20.4142 14.758C20.7893 14.3829 21 13.8742 21 13.3438V2.34375C21 1.81332 20.7893 1.30461 20.4142 0.929536C20.0391 0.554464 19.5304 0.34375 19 0.34375H8.46C8.81 0.95375 9 1.64375 9 2.34375H19V13.3438H10V15.3438M14 5.34375V7.34375H8V20.3438H6V14.3438H4V20.3438H2V12.3438H0.5V7.34375C0.5 6.81332 0.710714 6.30461 1.08579 5.92954C1.46086 5.55446 1.96957 5.34375 2.5 5.34375H14ZM7 2.34375C7 2.87418 6.78929 3.38289 6.41421 3.75796C6.03914 4.13304 5.53043 4.34375 5 4.34375C4.46957 4.34375 3.96086 4.13304 3.58579 3.75796C3.21071 3.38289 3 2.87418 3 2.34375C3 1.81332 3.21071 1.30461 3.58579 0.929536C3.96086 0.554464 4.46957 0.34375 5 0.34375C5.53043 0.34375 6.03914 0.554464 6.41421 0.929536C6.78929 1.30461 7 1.81332 7 2.34375Z" fill="#627DA0"/>
</svg>
