<svg width="16" height="21" viewBox="0 0 16 21" fill="none" xmlns="http://www.w3.org/2000/svg">
<path d="M14 0.34375C14.5304 0.34375 15.0391 0.554464 15.4142 0.929536C15.7893 1.30461 16 1.81332 16 2.34375V18.3438C16 18.8742 15.7893 19.3829 15.4142 19.758C15.0391 20.133 14.5304 20.3438 14 20.3438H2C1.46957 20.3438 0.960859 20.133 0.585786 19.758C0.210714 19.3829 0 18.8742 0 18.3438V2.34375C0 1.81332 0.210714 1.30461 0.585786 0.929536C0.960859 0.554464 1.46957 0.34375 2 0.34375H14ZM14 2.34375H9V7.34375L6.5 5.04375L4 7.34375V2.34375H2V18.3438H14M9 9.34375C9.39556 9.34375 9.78224 9.46105 10.1111 9.68081C10.44 9.90057 10.6964 10.2129 10.8478 10.5784C10.9991 10.9438 11.0387 11.346 10.9616 11.7339C10.8844 12.1219 10.6939 12.4783 10.4142 12.758C10.1345 13.0377 9.77814 13.2282 9.39018 13.3053C9.00222 13.3825 8.60009 13.3429 8.23463 13.1915C7.86918 13.0401 7.55682 12.7838 7.33706 12.4549C7.1173 12.126 7 11.7393 7 11.3438C7 10.8133 7.21071 10.3046 7.58579 9.92954C7.96086 9.55446 8.46957 9.34375 9 9.34375ZM13 17.3438H5V16.3438C5 15.0138 7.67 14.3438 9 14.3438C10.33 14.3438 13 15.0138 13 16.3438V17.3438Z" fill="#627DA0"/>
</svg>
