<svg width="52" height="47" viewBox="0 0 52 47" fill="none" xmlns="http://www.w3.org/2000/svg">
    <path d="M17.667 16H34.3337V31H17.667V16Z" stroke="#FFFEFE" stroke-width="1.5"/>
    <path d="M9.33337 46C13.9357 46 17.6667 42.6422 17.6667 38.5V31H9.33337C4.73099 31 1 34.3577 1 38.5C1 42.6422 4.73099 46 9.33337 46Z" stroke="#FFFEFE" stroke-width="1.5"/>
    <path d="M50.9997 38.5C50.9997 34.3577 47.2689 31 42.6664 31H34.333V38.5C34.333 42.6422 38.0639 46 42.6664 46C47.2689 46 50.9997 42.6422 50.9997 38.5Z" stroke="#FFFEFE" stroke-width="1.5"/>
    <path d="M42.6664 1C38.0639 1 34.333 4.35787 34.333 8.5V16H42.6664C47.2689 16 50.9997 12.6421 50.9997 8.5C50.9997 4.35787 47.2689 1 42.6664 1Z" stroke="#FFFEFE" stroke-width="1.5"/>
    <path d="M1 8.5C1 12.6421 4.73099 16 9.33337 16H17.6667V8.5C17.6667 4.35787 13.9357 1 9.33337 1C4.73099 1 1 4.35787 1 8.5Z" stroke="#FFFEFE" stroke-width="1.5"/>
    </svg>
